#!OML:ASF C:\ViconDB\ViconDB\414\Spring2016\041811\Spring2016.ASF
:FULLY-SPECIFIED
:DEGREES
174
root 12.2546 18.0486 11.3455 -176.024 -4.10354 -179.416
lowerback -5.349 1.58874 -2.93573
upperback 0.501103 2.30715 -0.217058
thorax 3.40931 1.0905 1.60916
lowerneck -13.7997 0.787304 -5.65602
upperneck 23.9659 -1.77787 11.8826
head 10.0096 -0.468121 4.88579
rclavicle 2.26366e-014 1.19271e-014
rhumerus -55.0845 9.78971 -90.704
rradius 62.3696
rwrist 33.7537
rhand -34.4895 -9.82449
rfingers 7.12502
rthumb -7.65204 -39.6661
lclavicle 2.26366e-014 1.19271e-014
lhumerus -60.9504 -24.6569 93.748
lradius 59.2336
lwrist -32.0247
lhand -28.0769 6.046
lfingers 7.12502
lthumb -1.46021 36.0208
rfemur 167.713 55.5943 -172.537
rtibia 28.462
rfoot -62.4237 -45.0992
rtoes -7.79236e-014
lfemur -8.66425 -6.4016 -16.6193
ltibia 27.8232
lfoot -24.8933 0.868969
ltoes 3.49861e-014
175
root 12.2125 18.0412 11.3233 -176.047 -4.1724 -179.631
lowerback -5.22964 1.57132 -3.15256
upperback 0.516079 2.29454 -0.270207
thorax 3.3522 1.08106 1.67085
lowerneck -13.6812 0.610098 -5.75799
upperneck 23.8601 -2.01963 11.9436
head 9.9756 -0.588491 4.89066
rclavicle 1.95803e-014 -5.56597e-015
rhumerus -56.3766 11.4297 -91.2702
rradius 63.9829
rwrist 33.6006
rhand -34.8722 -9.65866
rfingers 7.12502
rthumb -8.02138 -39.4864
lclavicle 1.95803e-014 -5.56597e-015
lhumerus -62.2877 -25.4356 94.1285
lradius 60.7366
lwrist -32.2234
lhand -28.3742 5.60135
lfingers 7.12502
lthumb -1.74735 35.5739
rfemur 167.419 53.7768 -173.353
rtibia 28.2066
rfoot -59.6853 -45.3206
rtoes 3.89618e-014
lfemur -8.54893 -6.57079 -17.0327
ltibia 27.8552
lfoot -25.0243 0.917571
ltoes -5.74488e-014
176
root 12.1785 18.042 11.2977 -176.145 -4.18672 -179.28
lowerback -5.12969 1.6778 -2.87445
upperback 0.564621 2.41557 -0.145147
thorax 3.34582 1.1465 1.65095
lowerneck -13.523 0.371675 -5.98839
upperneck 23.6657 -2.3211 12.0829
head 9.91068 -0.738531 4.93631
rclavicle -3.90115e-015 2.38542e-015
rhumerus -57.6373 12.7481 -91.6158
rradius 65.5065
rwrist 34.1989
rhand -35.5059 -9.6216
rfingers 7.12502
rthumb -8.63304 -39.4251
lclavicle -3.90115e-015 2.38542e-015
lhumerus -63.5898 -26.3362 94.5965
lradius 62.2821
lwrist -32.8523
lhand -28.6236 5.60406
lfingers 7.12502
lthumb -1.98815 35.5745
rfemur 167.157 50.8492 -173.523
rtibia 27.8755
rfoot -55.6525 -45.3045
rtoes 7.15625e-015
lfemur -8.43242 -6.47662 -16.7407
ltibia 27.9372
lfoot -25.1646 0.717011
ltoes 2.0276e-014
177
root 12.1351 18.0357 11.2769 -176.15 -4.28572 -179.315
lowerback -5.01868 1.72009 -2.83475
upperback 0.57214 2.46727 -0.193208
thorax 3.29237 1.17414 1.57923
lowerneck -13.3344 0.189998 -6.2168
upperneck 23.4702 -2.5891 12.3567
head 9.83869 -0.863967 5.03411
rclavicle 1.31198e-014 -4.77083e-015
rhumerus -58.9558 14.0733 -92.1272
rradius 66.9672
rwrist 34.3814
rhand -36.3073 -9.41766
rfingers 7.12502
rthumb -9.40627 -39.1878
lclavicle 1.31198e-014 -4.77083e-015
lhumerus -64.8902 -27.2191 94.9821
lradius 63.7666
lwrist -33.5409
lhand -28.7413 5.10501
lfingers 7.12502
lthumb -2.10184 35.0744
rfemur 167.017 48.5534 -174.039
rtibia 27.5655
rfoot -52.2063 -45.5211
rtoes -4.37326e-014
lfemur -8.42188 -6.01992 -16.8633
ltibia 27.994
lfoot -25.0696 0.0862901
ltoes -5.22804e-014
178
root 12.0927 18.0273 11.2634 -176.217 -4.53527 -179.329
lowerback -4.74066 1.69202 -2.88035
upperback 0.585995 2.42238 -0.118415
thorax 3.14733 1.15337 1.66872
lowerneck -13.1495 -0.00956237 -6.48601
upperneck 23.2786 -2.81086 12.4456
head 9.76295 -0.985753 5.07861
rclavicle 3.89121e-014 -1.11319e-014
rhumerus -60.24 15.4594 -92.3883
rradius 68.346
rwrist 34.8076
rhand -36.5315 -8.22339
rfingers 7.12502
rthumb -9.62263 -37.9836
lclavicle 3.89121e-014 -1.11319e-014
lhumerus -66.1891 -27.7038 95.419
lradius 65.2506
lwrist -34.4142
lhand -29.0427 4.65168
lfingers 7.12502
lthumb -2.39294 34.618
rfemur 166.789 45.9155 -174.584
rtibia 27.2263
rfoot -47.939 -45.8134
rtoes -4.69132e-014
lfemur -8.36533 -6.59041 -17.0631
ltibia 28.0918
lfoot -25.2209 0.270147
ltoes -2.98177e-015
179
root 12.0459 18.0206 11.2421 -176.232 -4.53351 -179.411
lowerback -4.644 1.73568 -2.96976
upperback 0.63352 2.48313 -0.0939509
thorax 3.13437 1.18182 1.74556
lowerneck -12.9881 -0.190612 -6.73157
upperneck 23.036 -3.02391 12.6098
head 9.67514 -1.09275 5.14615
rclavicle -3.03644e-014 -1.19271e-015
rhumerus -61.5295 16.7825 -92.7808
rradius 69.7111
rwrist 34.9484
rhand -37.0869 -7.70052
rfingers 7.12502
rthumb -10.1585 -37.4353
lclavicle -3.03644e-014 -1.19271e-015
lhumerus -67.2872 -28.191 95.6844
lradius 66.621
lwrist -35.4142
lhand -29.3186 4.19405
lfingers 7.12502
lthumb -2.65937 34.1572
rfemur 166.721 43.3358 -175.081
rtibia 26.9442
rfoot -44.3093 -45.8145
rtoes 3.81667e-014
lfemur -8.32147 -6.56123 -17.3266
ltibia 28.2202
lfoot -25.3224 0.141906
ltoes 4.85035e-014
180
root 12.0105 18.0107 11.2304 -176.402 -4.83082 -179.386
lowerback -4.20057 1.69081 -3.03115
upperback 0.663891 2.41145 -0.0575955
thorax 2.91592 1.1488 1.79708
lowerneck -12.769 -0.326125 -6.78751
upperneck 22.7736 -3.19313 12.6717
head 9.56206 -1.17624 5.1468
rclavicle -1.3331e-014 1.35174e-014
rhumerus -62.8125 17.9497 -93.1384
rradius 70.9829
rwrist 35.7785
rhand -37.0518 -6.31891
rfingers 7.12502
rthumb -10.1246 -36.0553
lclavicle -1.3331e-014 1.35174e-014
lhumerus -68.4141 -28.6188 95.9994
lradius 67.9438
lwrist -35.9565
lhand -29.6221 3.50217
lfingers 7.12502
lthumb -2.9525 33.4615
rfemur 166.258 41.145 -175.66
rtibia 26.6836
rfoot -40.4756 -46.1028
rtoes 4.29375e-014
lfemur -8.21604 -6.54959 -17.3905
ltibia 28.3667
lfoot -25.4253 -0.269207
ltoes -2.127e-014
181
root 11.9625 17.9967 11.2148 -176.45 -4.79599 -179.516
lowerback -4.0808 1.74874 -3.10648
upperback 0.778155 2.49173 -0.11245
thorax 2.96168 1.1857 1.78577
lowerneck -12.6663 -0.451867 -6.82539
upperneck 22.4979 -3.35105 12.7795
head 9.46706 -1.24258 5.16359
rclavicle 4.88141e-014 -3.57812e-015
rhumerus -64.0373 19.1102 -93.5986
rradius 72.2052
rwrist 36.1437
rhand -37.8968 -5.84314
rfingers 7.12502
rthumb -10.9397 -35.5381
lclavicle 4.88141e-014 -3.57812e-015
lhumerus -69.4973 -29.1623 96.2789
lradius 69.257
lwrist -36.6425
lhand -29.915 3.05173
lfingers 7.12502
lthumb -3.2354 33.0069
rfemur 165.972 39.1703 -176.244
rtibia 26.6093
rfoot -36.934 -46.7103
rtoes -3.73715e-014
lfemur -8.19072 -6.64669 -17.7136
ltibia 28.5587
lfoot -25.5308 -0.366412
ltoes -1.27222e-014
182
root 11.9236 17.9876 11.2098 -176.613 -5.02222 -179.484
lowerback -3.59403 1.71198 -3.17254
upperback 0.831184 2.42759 -0.0323613
thorax 2.73983 1.15588 1.88465
lowerneck -12.5171 -0.556931 -7.01937
upperneck 22.2688 -3.46738 12.9378
head 9.37716 -1.30101 5.23256
rclavicle -3.967e-014 2.5842e-015
rhumerus -65.401 20.3176 -94.1114
rradius 73.3386
rwrist 36.754
rhand -39.2382 -6.18743
rfingers 7.12502
rthumb -12.2333 -35.8097
lclavicle -3.967e-014 2.5842e-015
lhumerus -70.5553 -29.4776 96.6841
lradius 70.4445
lwrist -37.1196
lhand -30.3868 2.6622
lfingers 7.12502
lthumb -3.69103 32.61
rfemur 165.547 36.422 -176.655
rtibia 26.6003
rfoot -32.196 -46.9385
rtoes 6.91771e-014
lfemur -8.14097 -6.7765 -17.8077
ltibia 28.7858
lfoot -25.61 -0.597217
ltoes -4.77083e-014
183
root 11.8778 17.9648 11.1987 -176.75 -4.93484 -179.692
lowerback -3.29974 1.76872 -3.42493
upperback 0.968145 2.50453 -0.010458
thorax 2.70002 1.18857 2.04433
lowerneck -12.456 -0.674142 -7.17556
upperneck 22.0287 -3.56749 12.9985
head 9.29743 -1.35079 5.26248
rclavicle -6.33999e-014 2.48481e-014
rhumerus -66.642 21.4545 -94.5528
rradius 74.4488
rwrist 36.8277
rhand -40.5473 -5.70831
rfingers 7.12502
rthumb -13.4953 -35.2511
lclavicle -6.33999e-014 2.48481e-014
lhumerus -71.4881 -29.6749 97.0539
lradius 71.4782
lwrist -38.1993
lhand -30.8876 2.41796
lfingers 7.12502
lthumb -4.17457 32.3568
rfemur 165.129 34.3137 -177.288
rtibia 26.7997
rfoot -28.797 -47.4302
rtoes -1.35174e-014
lfemur -8.03259 -6.74526 -18.2225
ltibia 29.0147
lfoot -25.8035 -0.708582
ltoes -6.75868e-015
184
root 11.8362 17.9532 11.2055 -177.084 -5.09183 -179.578
lowerback -2.54447 1.77131 -3.33011
upperback 1.09009 2.47423 0.0630681
thorax 2.40324 1.17836 2.04012
lowerneck -12.3546 -0.786272 -7.21633
upperneck 21.7212 -3.6773 13.0442
head 9.18692 -1.39913 5.26276
rclavicle 2.32951e-014 5.96354e-015
rhumerus -67.8975 22.4511 -95.0186
rradius 75.5952
rwrist 37.1467
rhand -41.5762 -5.98004
rfingers 7.12502
rthumb -14.4869 -35.4543
lclavicle 2.32951e-014 5.96354e-015
lhumerus -72.526 -30.0028 97.6059
lradius 72.8621
lwrist -36.9914
lhand -30.7711 1.75493
lfingers 7.12502
lthumb -4.06208 31.6959
rfemur 164.505 31.5297 -177.552
rtibia 27.153
rfoot -24.061 -47.9213
rtoes 6.36111e-015
lfemur -7.83725 -6.90297 -18.26
ltibia 29.2142
lfoot -25.8968 -0.841566
ltoes 1.39149e-015
185
root 11.795 17.9438 11.2 -177.127 -5.21009 -179.668
lowerback -2.26081 1.77556 -3.44586
upperback 1.20215 2.47282 0.0572525
thorax 2.3548 1.17441 2.09071
lowerneck -12.2575 -0.879494 -7.20323
upperneck 21.3907 -3.76383 13.0764
head 9.06631 -1.43313 5.25092
rclavicle -2.79292e-014 2.38542e-015
rhumerus -69.1295 23.3183 -95.5653
rradius 76.704
rwrist 37.2655
rhand -42.2959 -5.51261
rfingers 7.12502
rthumb -15.1802 -34.9358
lclavicle -2.79292e-014 2.38542e-015
lhumerus -73.4285 -30.3336 98.0318
lradius 74.1086
lwrist -36.0558
lhand -30.975 0.732373
lfingers 7.12502
lthumb -4.259 30.6695
rfemur 164.037 29.2383 -177.873
rtibia 27.7749
rfoot -19.9541 -48.6131
rtoes -3.02153e-014
lfemur -7.86666 -6.98083 -18.5097
ltibia 29.4039
lfoot -25.9544 -1.01291
ltoes -1.78906e-015
